# xmcd
#
# Track frame offsets: 
#        150
#        14830
#        35382
#        60175
#        78366
#        98421
#        115050
#        133444
#        155096
#        182907
#        201715
#        216474
#        231828
#        254771
#        274321
#        288092
#        306702
#
# Disc length: 4323 seconds
#
# Revision: 0
# Processed by: cddbd v1.5.1PL2 Copyright (c) Steve Scherf et al.
# Submitted via: ExactAudioCopy v0.95b3
#
DISCID=0c10e111
DTITLE=Antal Gabor Szucs and Zoltan Pomazi - Latin Guitar CREOL
DYEAR=2005
DGENRE=National Music
TTITLE0=Lambada
TTITLE1=Creol Sunshine
TTITLE2=Hotel California
TTITLE3=Creol Queen
TTITLE4=La Isla Bonita
TTITLE5=Latin Quarter
TTITLE6=2 The Night
TTITLE7=Moonflower
TTITLE8=Summer At The Balaton
TTITLE9=Tour-Mix
TTITLE10=Will Survive
TTITLE11=La Galleguita
TTITLE12=Moorea
TTITLE13=Waves
TTITLE14=Olympics
TTITLE15=Sun Machine
TTITLE16=Confession
EXTD=
EXTT0=
EXTT1=
EXTT2=
EXTT3=
EXTT4=
EXTT5=
EXTT6=
EXTT7=
EXTT8=
EXTT9=
EXTT10=
EXTT11=
EXTT12=
EXTT13=
EXTT14=
EXTT15=
EXTT16=
PLAYORDER=
